<?xml version="1.0" encoding="UTF-8" standalone="no"?><!DOCTYPE svg PUBLIC "-//W3C//DTD SVG 1.1//EN" "http://www.w3.org/Graphics/SVG/1.1/DTD/svg11.dtd"><svg width="100%" height="100%" viewBox="0 0 837 837" version="1.1" xmlns="http://www.w3.org/2000/svg" xmlns:xlink="http://www.w3.org/1999/xlink" xml:space="preserve" xmlns:serif="http://www.serif.com/" style="fill-rule:evenodd;clip-rule:evenodd;stroke-linejoin:round;stroke-miterlimit:2;"><g><path d="M164.95,681.83c-15.31,-19.35 -32.27,-51.72 -42.54,-81.21c-6.74,-19.39 -12.71,-44.87 -16.07,-68.62c-2.55,-17.96 -2.53,-62.23 0.02,-81c9.67,-71.17 38.9,-133.17 89.11,-189.01c9.99,-11.11 16.43,-17.55 12.49,-12.47c-0.85,1.09 -4.03,4.91 -7.06,8.48c-28.02,32.99 -51.44,74.3 -64.36,113.5c-12.53,38.06 -17.16,68.8 -16.25,107.94c0.55,23.52 1.56,32.38 6.19,54.27c2.62,12.4 5.97,24.02 5,17.35c-3.35,-22.97 -3.88,-30.29 -3.93,-54.56c-0.05,-27.03 0.66,-35.69 5,-61.12c9.88,-57.76 34.83,-113.12 71.74,-159.17c69.47,-86.68 171.34,-135.14 277.21,-131.86c50.88,1.57 97.83,13.31 142.5,35.61c32.35,16.15 62.88,37.76 88.59,62.69c8.58,8.33 8.08,8.14 -3.01,-1.13c-55.37,-46.3 -118.92,-73.22 -187.58,-79.47c-14.77,-1.34 -45.83,-1.35 -59.14,-0.01c-54.78,5.51 -103.13,22.54 -148.86,52.43c-30.07,19.67 -61.33,49.38 -83.73,79.61c-30.53,41.19 -50.77,88.49 -58.81,137.41c-1.36,8.24 -2.97,21.29 -3.59,29c-2.83,35.47 3.43,79.97 16.13,114.51c5.82,15.84 5.74,13.63 0.77,22.61c-6.39,11.56 -11.49,23.91 -14.5,35.12c-2.34,8.72 -2.63,11.65 -2.68,27.27c-0.04,11.64 0.37,18.96 1.24,21.85c0.72,2.39 1.09,4.57 0.82,4.83c-0.26,0.26 -2.38,-1.92 -4.7,-4.85Zm-27.13,-10.17c-50.12,-45.34 -82.98,-109.63 -89.79,-175.66c-1.36,-13.17 -1.4,-44.44 -0.09,-57.04c2.09,-19.99 9.47,-50.18 16.73,-68.45c5.21,-13.11 13.32,-29.64 19.89,-40.51c6.24,-10.33 19.18,-29 20.1,-29c0.31,0 -0.09,1.01 -0.9,2.25c-8.6,13.13 -11.89,18.88 -18.56,32.46c-27.17,55.38 -34.5,117.84 -20.66,176.29c2.99,12.64 8.46,29.49 13.14,40.46c6.82,15.97 20.71,40.09 28.92,50.19c2.05,2.53 5.09,8.8 7.74,16c7.24,19.64 19.9,43.13 30.1,55.85c7.36,9.18 6.06,8.63 -6.62,-2.84Zm61.27,-104.38c-3.81,-9.96 -9.09,-29.27 -12.18,-44.6l-3,-14.82l4.49,-13.88c15.09,-46.66 38.24,-84.85 71.53,-117.98c33.93,-33.77 68.85,-54.77 114.57,-68.91c39.27,-12.14 84.77,-13.81 124.37,-4.55c64.28,15.02 116.36,52.39 155.33,111.46c21.04,31.9 35.25,69.72 41.32,110c1.72,11.47 3.34,34 2.44,34c-0.31,0 -1.93,-1.46 -3.6,-3.25c-2.74,-2.93 -3.21,-4.44 -4.76,-15.25c-6.41,-44.71 -26.43,-90.56 -55.24,-126.5c-9.97,-12.44 -31.44,-33.57 -42.36,-41.69c-100.1,-74.41 -236.79,-53.32 -319.54,49.29c-28.84,35.77 -49.46,82.51 -55.95,126.86c-0.89,6.02 -2.15,11.65 -2.81,12.5c-3.4,4.38 -11.23,13.04 -11.78,13.04c-0.35,0 -1.63,-2.57 -2.83,-5.72Zm38,-34.94c7.22,-33.02 27.16,-74.22 48.66,-100.54c47.84,-58.54 124.95,-92.76 193.23,-85.75c26.59,2.72 55.97,11.61 77.02,23.28c9.13,5.07 22.96,14.54 32.68,22.39c34.42,27.79 64.71,76.99 78.28,127.16c4.89,18.07 5.63,16.98 -6.49,9.62c-69.43,-42.1 -158.48,-61.76 -241.97,-53.42c-70.29,7.03 -133.28,29.48 -181.53,64.74c-1.72,1.25 -1.71,0.9 0.12,-7.48Zm553.51,-33.56c-6.42,-21.45 -20.79,-53.47 -33.07,-73.74c-39.15,-64.55 -95.61,-113.49 -164.33,-142.42c-28.43,-11.97 -52.84,-18.01 -92.7,-22.95c-6.79,-0.84 7.79,-0.57 18.89,0.35c46.47,3.85 92.24,18.69 134.09,43.49c69.85,41.39 123.05,112.91 136.85,183.99c4.63,23.84 4.68,26.01 0.27,11.28Zm-606.24,-42.78c0.29,-1.38 0.79,-6.1 1.13,-10.5c1.44,-18.88 5.86,-33.21 15.96,-51.67c30.98,-56.68 71.56,-98.99 125.55,-130.89c37.55,-22.18 80.09,-36.41 124.15,-41.51c19.6,-2.26 57.28,-1.53 77.35,1.51c79.83,12.1 150.1,52.72 202.53,117.09c11.42,14.03 15.64,19.98 8.47,11.97c-54.93,-61.42 -119.25,-97.9 -194.06,-110.09c-18.37,-3 -57.44,-3.76 -76.94,-1.51c-66.45,7.67 -125.41,35.64 -176,83.48c-3.85,3.64 -12.63,11.33 -19.5,17.08c-34.82,29.13 -60.19,60.72 -79.12,98.52c-4.95,9.88 -9.24,18.21 -9.52,18.5c-0.29,0.28 -0.29,-0.61 0,-1.98Z" style="fill:#e0e5ed;fill-rule:nonzero;"/></g></svg>