<?xml version="1.0" encoding="utf-8"?>
<!-- Generator: Adobe Illustrator 19.2.1, SVG Export Plug-In . SVG Version: 6.00 Build 0)  -->
<svg version="1.1" id="Layer_1" xmlns="http://www.w3.org/2000/svg" xmlns:xlink="http://www.w3.org/1999/xlink" x="0px" y="0px"
	 viewBox="0 0 60.3 69" style="enable-background:new 0 0 60.3 69;" xml:space="preserve">
<style type="text/css">
	.st0{clip-path:url(#SVGID_2_);}
	.st1{opacity:0.2;}
	.st2{clip-path:url(#SVGID_4_);}
	.st3{clip-path:url(#SVGID_6_);}
	.st4{clip-path:url(#SVGID_8_);}
	.st5{clip-path:url(#SVGID_10_);}
	.st6{clip-path:url(#SVGID_12_);}
	.st7{clip-path:url(#SVGID_14_);}
	.st8{clip-path:url(#SVGID_16_);}
	.st9{clip-path:url(#SVGID_18_);}
	.st10{clip-path:url(#SVGID_20_);}
</style>
<title>ARkit_Badges</title>
<g>
	<defs>
		<rect id="SVGID_1_" x="0" y="-0.2" width="60.3" height="69.2"/>
	</defs>
	<clipPath id="SVGID_2_">
		<use xlink:href="#SVGID_1_"  style="overflow:visible;"/>
	</clipPath>
	<g class="st0">
		<path d="M38.5,7.5c-0.3,0-0.5-0.1-0.7-0.2l-7.6-4.4l-7.7,4.4c-0.7,0.4-1.6,0.2-2-0.5s-0.2-1.6,0.5-2l0,0L29.4,0
			c0.4-0.3,1-0.3,1.4,0l8.3,4.8c0.7,0.4,0.9,1.3,0.5,2C39.5,7.2,39,7.5,38.5,7.5"/>
		<path d="M30.1,45.5c-0.8,0-1.4-0.6-1.4-1.4c0,0,0,0,0-0.1v-9.6c0-0.8,0.6-1.4,1.4-1.4s1.4,0.6,1.4,1.4c0,0,0,0,0,0V44
			C31.6,44.8,30.9,45.4,30.1,45.5L30.1,45.5"/>
		<path d="M1.4,28.9c-0.8,0-1.4-0.6-1.4-1.4l0,0v-9.7c0-0.8,0.6-1.4,1.4-1.4s1.4,0.6,1.4,1.4c0,0,0,0,0,0v9.7
			C2.9,28.2,2.2,28.9,1.4,28.9L1.4,28.9"/>
		<path d="M58.8,28.9c-0.8,0-1.4-0.6-1.4-1.4l0,0v-9.7c0-0.8,0.6-1.4,1.4-1.4s1.4,0.6,1.4,1.4v9.7C60.3,28.2,59.6,28.9,58.8,28.9
			L58.8,28.9"/>
		<path d="M58.8,52.4c-0.8,0-1.4-0.6-1.4-1.4v-9.7c0-0.8,0.6-1.4,1.4-1.4l0,0l0,0c0.8,0,1.4,0.6,1.4,1.4l0,0V51
			C60.3,51.8,59.6,52.4,58.8,52.4L58.8,52.4L58.8,52.4z"/>
		<path d="M1.4,52.4C0.7,52.4,0,51.8,0,51v-9.7c0-0.8,0.6-1.4,1.4-1.4s1.4,0.6,1.4,1.4c0,0,0,0,0,0V51C2.9,51.8,2.2,52.4,1.4,52.4
			C1.4,52.4,1.4,52.4,1.4,52.4"/>
		<path d="M30.1,13.2c-0.8,0-1.4-0.6-1.4-1.4c0,0,0,0,0,0V1.2c0-0.8,0.6-1.4,1.4-1.4s1.4,0.6,1.4,1.4c0,0,0,0,0,0v10.5
			C31.6,12.6,30.9,13.2,30.1,13.2L30.1,13.2"/>
		<path d="M30.1,69c-0.8,0-1.4-0.6-1.4-1.4c0,0,0,0,0,0v-9.6c0-0.8,0.6-1.4,1.4-1.4s1.4,0.6,1.4,1.4c0,0,0,0,0,0v9.7
			C31.6,68.4,30.9,69,30.1,69"/>
		<path d="M30.1,69c-0.3,0-0.5-0.1-0.7-0.2L21,64c-0.7-0.4-0.9-1.3-0.5-2s1.3-0.9,2-0.5l7.7,4.4l7.6-4.4c0.7-0.3,1.6,0.1,1.8,0.9
			c0.2,0.6,0,1.2-0.4,1.6l-8.3,4.8C30.7,68.9,30.4,69,30.1,69"/>
		<path d="M30.1,35.8c-0.3,0-0.5-0.1-0.7-0.2L21,30.8c-0.7-0.4-0.9-1.3-0.5-2s1.3-0.9,2-0.5l7.7,4.4l7.6-4.4
			c0.7-0.4,1.6-0.1,1.9,0.6c0.3,0.7,0.1,1.5-0.5,1.9l-8.3,4.8C30.6,35.7,30.4,35.8,30.1,35.8"/>
		<path d="M50.5,24.1c-0.8,0-1.4-0.6-1.4-1.4c0-0.5,0.3-1,0.7-1.3l8.4-4.8c0.7-0.4,1.6-0.2,2,0.5s0.2,1.6-0.5,2l-8.4,4.8
			C51,24,50.7,24.1,50.5,24.1"/>
		<path d="M58.8,19.2c-0.3,0-0.5-0.1-0.7-0.2l-8.4-4.8c-0.7-0.4-0.9-1.3-0.5-2s1.3-0.9,2-0.5l8.4,4.8c0.7,0.4,0.9,1.3,0.5,2
			C59.8,19,59.3,19.2,58.8,19.2"/>
		<path d="M9.8,24.1c-0.3,0-0.5-0.1-0.7-0.2L0.7,19c-0.7-0.4-0.9-1.3-0.5-2s1.3-0.9,2-0.5l8.4,4.8c0.7,0.4,0.9,1.3,0.5,2
			C10.8,23.7,10.3,24,9.8,24.1"/>
		<path d="M1.4,19.2c-0.8,0-1.4-0.6-1.4-1.4c0-0.5,0.3-1,0.7-1.3l8.4-4.8c0.7-0.4,1.6-0.2,2,0.5s0.2,1.6-0.5,2l0,0L2.2,19
			C1.9,19.1,1.7,19.2,1.4,19.2"/>
		<path d="M50.4,57.2c-0.8,0-1.4-0.6-1.4-1.4c0-0.5,0.3-1,0.7-1.3l8.4-4.8c0.7-0.4,1.6-0.2,2,0.5s0.2,1.6-0.5,2L51.2,57
			C50.9,57.2,50.7,57.2,50.4,57.2"/>
		<path d="M58.8,52.4c-0.3,0-0.5-0.1-0.7-0.2l-8.4-4.8c-0.7-0.4-0.9-1.3-0.5-2c0.4-0.7,1.3-0.9,2-0.5l8.4,4.8c0.7,0.4,0.9,1.3,0.5,2
			C59.8,52.1,59.3,52.4,58.8,52.4"/>
		<path d="M9.8,57.2c-0.3,0-0.5-0.1-0.7-0.2l-8.4-4.8c-0.7-0.4-0.9-1.3-0.5-2s1.3-0.9,2-0.5l8.4,4.8c0.7,0.4,0.9,1.3,0.5,2
			C10.8,57,10.3,57.3,9.8,57.2"/>
		<path d="M1.4,52.4C0.6,52.4,0,51.8,0,51c0-0.5,0.3-1,0.7-1.3l8.3-4.8c0.7-0.4,1.6-0.2,2,0.5c0.4,0.7,0.2,1.6-0.5,2l-8.3,4.8
			C1.9,52.3,1.7,52.4,1.4,52.4"/>
		<g>
			<g class="st1">
				<defs>
					<rect id="SVGID_3_" x="0.6" y="0.4" class="st1" width="30.3" height="18.2"/>
				</defs>
				<clipPath id="SVGID_4_">
					<use xlink:href="#SVGID_3_"  style="overflow:visible;"/>
				</clipPath>
				<g class="st2">
					<path d="M1.4,18.6c-0.5,0-0.8-0.4-0.8-0.8c0-0.3,0.2-0.6,0.4-0.7L29.7,0.5c0.4-0.2,0.9-0.1,1.1,0.3c0.2,0.4,0.1,0.9-0.3,1.1
						L1.9,18.5C1.7,18.6,1.6,18.6,1.4,18.6"/>
				</g>
			</g>
			<g>
				<g class="st1">
					<defs>
						<rect id="SVGID_5_" x="0.6" y="17" class="st1" width="59" height="34.8"/>
					</defs>
					<clipPath id="SVGID_6_">
						<use xlink:href="#SVGID_5_"  style="overflow:visible;"/>
					</clipPath>
					<g class="st3">
						<path d="M1.4,51.8c-0.5,0-0.8-0.4-0.8-0.8c0-0.3,0.2-0.6,0.4-0.7l57.4-33.2c0.4-0.2,0.9-0.1,1.1,0.3c0.2,0.4,0.1,0.9-0.3,1.1
							L1.9,51.7C1.7,51.8,1.6,51.8,1.4,51.8"/>
					</g>
				</g>
				<g>
					<g class="st1">
						<defs>
							<rect id="SVGID_7_" x="29.3" y="0.4" class="st1" width="30.3" height="18.2"/>
						</defs>
						<clipPath id="SVGID_8_">
							<use xlink:href="#SVGID_7_"  style="overflow:visible;"/>
						</clipPath>
						<g class="st4">
							<path d="M58.8,18.6c-0.1,0-0.3,0-0.4-0.1L29.7,1.9c-0.4-0.2-0.5-0.7-0.3-1.1c0.2-0.4,0.7-0.5,1.1-0.3l28.7,16.6
								c0.4,0.2,0.5,0.7,0.3,1.1C59.4,18.5,59.1,18.6,58.8,18.6"/>
						</g>
					</g>
					<g>
						<g class="st1">
							<defs>
								<rect id="SVGID_9_" x="0.6" y="17" class="st1" width="59" height="34.8"/>
							</defs>
							<clipPath id="SVGID_10_">
								<use xlink:href="#SVGID_9_"  style="overflow:visible;"/>
							</clipPath>
							<g class="st5">
								<path d="M58.8,51.8c-0.1,0-0.3,0-0.4-0.1L1,18.5c-0.4-0.2-0.5-0.7-0.3-1.1C1,17,1.5,16.9,1.9,17.1l57.4,33.2
									c0.4,0.2,0.5,0.7,0.3,1.1C59.4,51.6,59.1,51.8,58.8,51.8"/>
							</g>
						</g>
						<g>
							<g class="st1">
								<defs>
									<rect id="SVGID_11_" x="0.6" y="50.2" class="st1" width="30.3" height="18.2"/>
								</defs>
								<clipPath id="SVGID_12_">
									<use xlink:href="#SVGID_11_"  style="overflow:visible;"/>
								</clipPath>
								<g class="st6">
									<path d="M30.1,68.4c-0.1,0-0.3,0-0.4-0.1L1,51.7c-0.4-0.2-0.5-0.7-0.3-1.1C1,50.2,1.5,50,1.9,50.3l28.7,16.6
										c0.4,0.2,0.5,0.7,0.3,1.1C30.7,68.2,30.4,68.4,30.1,68.4"/>
								</g>
							</g>
							<g>
								<g class="st1">
									<defs>
										<rect id="SVGID_13_" x="29.3" y="50.1" class="st1" width="30.3" height="18.2"/>
									</defs>
									<clipPath id="SVGID_14_">
										<use xlink:href="#SVGID_13_"  style="overflow:visible;"/>
									</clipPath>
									<g class="st7">
										<path d="M30.2,68.4c-0.5,0-0.8-0.4-0.8-0.8c0-0.3,0.2-0.6,0.4-0.7l28.7-16.6c0.4-0.2,0.9-0.1,1.1,0.3
											c0.2,0.4,0.1,0.9-0.3,1.1L30.6,68.3C30.4,68.4,30.3,68.4,30.2,68.4"/>
									</g>
								</g>
								<g>
									<g class="st1">
										<defs>
											<rect id="SVGID_15_" x="0.6" y="17" class="st1" width="1.6" height="34.8"/>
										</defs>
										<clipPath id="SVGID_16_">
											<use xlink:href="#SVGID_15_"  style="overflow:visible;"/>
										</clipPath>
										<g class="st8">
											<path d="M1.4,51.8c-0.4,0-0.8-0.4-0.8-0.8V17.8C0.6,17.3,1,17,1.5,17s0.8,0.4,0.8,0.8c0,0,0,0,0,0V51
												C2.3,51.5,1.9,51.8,1.4,51.8"/>
										</g>
									</g>
									<g>
										<g class="st1">
											<defs>
												<rect id="SVGID_17_" x="58" y="17" class="st1" width="1.6" height="34.8"/>
											</defs>
											<clipPath id="SVGID_18_">
												<use xlink:href="#SVGID_17_"  style="overflow:visible;"/>
											</clipPath>
											<g class="st9">
												<path d="M58.8,51.8c-0.5,0-0.8-0.4-0.8-0.8v0V17.8c0-0.5,0.4-0.8,0.8-0.8c0.5,0,0.8,0.4,0.8,0.8c0,0,0,0,0,0V51
													C59.6,51.5,59.3,51.8,58.8,51.8L58.8,51.8"/>
											</g>
										</g>
										<g>
											<g class="st1">
												<defs>
													<rect id="SVGID_19_" x="29.3" y="0.4" class="st1" width="1.6" height="67.9"/>
												</defs>
												<clipPath id="SVGID_20_">
													<use xlink:href="#SVGID_19_"  style="overflow:visible;"/>
												</clipPath>
												<g class="st10">
													<path d="M30.1,68.3c-0.5,0-0.8-0.4-0.8-0.8V1.2c0-0.5,0.4-0.8,0.8-0.8c0.5,0,0.8,0.4,0.8,0.8v66.2
														C31,67.9,30.6,68.3,30.1,68.3"/>
												</g>
											</g>
										</g>
									</g>
								</g>
							</g>
						</g>
					</g>
				</g>
			</g>
		</g>
	</g>
</g>
</svg>
